<svg width="1024" height="1024" viewBox="0 0 1024 1024" fill="none" xmlns="http://www.w3.org/2000/svg">
  <defs>
    <!-- Holographic gradient for the edges -->
    <linearGradient id="holo" x1="0" y1="0" x2="200" y2="200" gradientUnits="userSpaceOnUse">
      <stop offset="0%" stop-color="#4ECDC4"/>
      <stop offset="15%" stop-color="#45B7D1"/>
      <stop offset="30%" stop-color="#7C6FE0"/>
      <stop offset="45%" stop-color="#C471ED"/>
      <stop offset="60%" stop-color="#F37B9E"/>
      <stop offset="75%" stop-color="#F5CD79"/>
      <stop offset="90%" stop-color="#55E6C1"/>
      <stop offset="100%" stop-color="#74b9ff"/>
    </linearGradient>

    <!-- White center radial — fades from bright white to transparent -->
    <radialGradient id="white-core" cx="50%" cy="45%" r="42%" fx="48%" fy="40%">
      <stop offset="0%" stop-color="#ffffff" stop-opacity="1"/>
      <stop offset="45%" stop-color="#ffffff" stop-opacity="0.95"/>
      <stop offset="65%" stop-color="#ffffff" stop-opacity="0.6"/>
      <stop offset="80%" stop-color="#ffffff" stop-opacity="0.15"/>
      <stop offset="100%" stop-color="#ffffff" stop-opacity="0"/>
    </radialGradient>

    <!-- Soft glow behind logo -->
    <radialGradient id="glow" cx="46%" cy="46%" r="32%">
      <stop offset="0%" stop-color="#ffffff" stop-opacity="0.12"/>
      <stop offset="40%" stop-color="#a29bfe" stop-opacity="0.06"/>
      <stop offset="70%" stop-color="#fd79a8" stop-opacity="0.03"/>
      <stop offset="100%" stop-color="#000000" stop-opacity="0"/>
    </radialGradient>

    <!-- Vignette background -->
    <radialGradient id="vignette" cx="48%" cy="43%" r="62%">
      <stop offset="0%" stop-color="#1e1e1e"/>
      <stop offset="100%" stop-color="#080808"/>
    </radialGradient>

    <!-- Top light -->
    <linearGradient id="shine" x1="0.5" y1="0" x2="0.5" y2="1">
      <stop offset="0%" stop-color="#ffffff" stop-opacity="0.04"/>
      <stop offset="35%" stop-color="#ffffff" stop-opacity="0"/>
      <stop offset="100%" stop-color="#000000" stop-opacity="0.1"/>
    </linearGradient>

    <!-- The ethnomir path as a clipPath for masking -->
    <clipPath id="logo-clip">
      <path transform="translate(250, 200) scale(2.6)" d="M97.084 0C96.9171 1.19956 96.8646 2.39907 97.1045 3.59863C97.1045 4.77879 97.1043 5.56602 96.7109 6.74609C96.3174 9.10666 95.1365 11.0739 93.5625 13.041C91.2016 15.4015 89.2342 18.5491 88.0537 22.0898C86.4797 25.2373 86.0869 28.7785 86.0869 32.3193C86.0869 33.4996 86.0868 34.2866 85.6934 35.4668C85.2999 37.8274 84.1189 39.7946 82.5449 41.7617C80.184 44.1223 78.2166 47.2697 77.0361 50.8105C75.8557 54.3514 75.0684 57.4992 75.4619 61.04C75.4619 62.2201 75.4618 63.0073 75.0684 64.1875C74.6748 66.5477 73.4946 68.5146 71.9209 70.4814C69.5599 72.842 67.5926 75.9904 66.4121 79.5312C65.2317 83.0719 64.4444 86.2191 64.8379 89.7598C64.8379 90.94 64.8378 91.727 64.4443 92.9072C64.0508 94.8744 62.8699 96.8413 61.6895 98.415C62.0829 98.8084 62.8701 98.8088 63.2637 99.2021L114.812 20.9102L73.8877 104.71C74.2811 104.71 74.2816 105.103 74.6748 105.104C76.2487 103.923 77.8234 102.743 79.0039 100.776C79.3974 99.9895 79.7901 98.8083 80.1836 98.0215C80.9706 94.8742 82.5454 91.7266 84.9062 88.9727C87.267 86.219 90.0213 83.8588 93.1689 82.2852C95.1364 81.1049 96.7112 79.5306 98.2852 77.5635C98.6786 76.7767 99.0714 75.5963 99.4648 74.8096C100.252 71.6621 101.827 68.5147 104.188 65.7607C106.548 63.0069 109.302 60.6459 112.45 59.0723C114.418 57.892 115.992 56.3187 117.566 54.3516C117.96 53.5648 118.353 52.3845 118.746 51.5977C119.533 48.4502 121.108 45.3028 123.469 42.5488C125.83 39.7949 128.584 37.4341 131.731 35.8604C133.699 34.6801 135.274 33.1058 136.848 31.1387C136.848 29.1719 137.241 28.3852 137.635 27.2051C138.422 24.0577 139.996 20.9102 142.356 18.1562C144.717 15.4024 145.111 15.7953 143.144 18.9424C141.176 22.0897 139.601 25.2374 138.814 28.3848C138.421 29.1715 138.028 29.9587 137.635 31.1387C136.454 33.4992 134.88 35.0736 132.912 36.2539C130.158 38.221 127.403 40.5811 125.436 43.335C123.468 46.4823 121.894 49.63 121.107 52.7773C120.714 53.9576 120.714 54.7444 119.927 55.5312C118.746 57.8918 117.173 59.4662 115.205 60.6465C112.451 62.6136 109.696 64.9737 107.729 67.7275C105.761 70.4814 104.187 74.0226 103.4 77.1699C103.007 78.3501 103.007 79.137 102.22 79.9238C101.039 82.2844 99.4655 83.8588 97.498 85.0391C94.7437 87.0061 91.9889 89.3662 90.0215 92.1201C88.0541 95.2674 86.4804 98.4152 85.6934 101.562C85.2999 102.743 85.2994 103.53 84.5127 104.316C83.7257 106.284 82.1511 107.858 80.5771 109.038L81.7578 110.218L151.8 48.8438L91.9893 120.054L92.7764 120.841C94.7436 120.054 96.3177 119.267 97.8916 117.693C98.6784 116.907 99.0717 116.12 99.8584 115.333C101.432 112.579 103.793 109.824 106.941 107.464C109.696 105.103 113.238 103.924 116.386 103.137C118.747 102.743 120.714 101.563 122.288 99.5957C123.075 98.8089 123.469 98.0222 124.256 97.2354C125.83 94.4814 128.19 91.7268 131.338 89.3662C134.092 87.0057 137.634 85.8259 140.782 85.0391C143.143 84.6456 145.111 83.4651 146.685 81.498C147.472 80.7112 147.865 79.9245 148.652 79.1377C150.226 76.3837 152.587 73.6291 155.735 71.2686C158.49 68.9082 162.031 67.7282 165.179 66.9414C167.54 66.548 169.507 65.3674 171.081 63.4004C171.868 62.6136 172.262 61.8268 173.049 61.04C174.623 58.286 176.984 55.5315 180.132 53.1709C182.886 50.8105 183.28 51.5975 180.525 53.958C177.771 56.3185 175.803 59.0724 174.229 62.2197C173.836 63.0065 173.049 64.1868 172.655 64.9736C171.081 66.9408 169.114 68.1213 166.753 68.9082C163.605 70.0885 160.457 71.6619 157.702 74.0225C154.948 76.383 152.98 79.1377 151.406 82.2852C151.013 83.0719 150.226 83.859 149.833 85.0391C148.259 87.0061 146.291 88.1858 143.931 88.9727C140.783 90.1529 137.634 91.7273 134.88 94.0879C132.125 96.4484 130.158 99.2022 128.584 102.35C128.19 103.136 127.403 103.923 127.01 105.104C125.436 107.071 123.468 108.251 121.107 109.038C117.96 110.218 114.811 111.792 112.057 114.152C109.302 116.513 107.335 119.267 105.761 122.414C105.367 123.201 104.581 123.989 104.188 125.169C102.614 126.742 101.039 127.922 99.0723 128.709L100.252 129.89L180.919 85.0391L105.761 139.332C105.761 139.725 106.154 139.726 106.154 140.119C108.122 140.119 110.089 139.332 112.057 138.151C112.844 137.758 113.631 137.365 114.418 136.578C116.779 134.218 119.534 132.25 123.075 130.677C126.617 129.103 129.764 128.709 133.306 128.709C135.667 128.709 138.028 127.922 139.995 126.742C140.782 126.349 141.569 125.562 142.356 124.775C144.717 122.415 147.471 120.448 151.013 118.874C154.554 117.3 157.703 116.906 161.244 116.906C163.605 116.906 165.966 116.12 167.934 114.939C168.72 114.546 169.507 113.759 170.294 112.973C172.655 110.612 175.41 108.644 178.951 107.07C182.492 105.497 185.64 105.104 189.182 105.104C191.542 105.104 193.904 104.317 195.871 103.137C196.658 102.743 197.445 101.956 198.232 101.169C198.779 100.622 199.388 100.076 200.04 99.5459C200.041 99.6897 200.043 99.8336 200.043 99.9775C200.043 100.834 200.031 101.688 200.01 102.54C199.942 102.608 199.874 102.675 199.807 102.743C199.02 103.53 198.232 104.317 197.445 104.71C195.478 106.284 193.117 107.07 190.756 107.07C187.214 107.464 184.067 108.252 180.525 109.825C177.377 111.399 174.623 113.76 172.262 116.12C171.475 116.907 170.687 117.694 169.9 118.087C167.933 119.66 165.573 120.447 163.212 120.447C159.67 120.841 156.522 121.627 152.98 123.201C149.833 124.775 147.078 127.136 144.717 129.496C143.93 130.283 143.143 131.069 142.356 131.463C140.389 133.037 138.028 133.824 135.667 133.824C132.126 134.218 128.584 135.004 125.436 136.578C122.288 138.152 119.534 140.513 117.173 142.873C116.386 143.66 115.599 144.446 114.812 144.84C113.238 146.02 111.27 146.807 109.303 147.2C109.696 147.594 109.696 148.381 110.09 148.774L196.227 127.43C196.155 127.681 196.082 127.931 196.009 128.182L114.024 160.971C114.024 161.364 114.025 161.364 114.418 161.758C116.385 162.151 118.353 162.151 120.714 161.364C121.894 161.758 122.682 161.364 123.469 160.971C126.223 159.004 129.764 157.823 133.306 157.43C136.847 157.036 140.389 157.036 143.931 157.823C146.291 158.217 148.652 158.216 151.013 157.43C152.193 157.036 152.981 156.642 153.768 156.249C156.522 154.282 160.063 153.102 163.604 152.709C167.146 152.316 170.688 152.315 174.229 153.102C176.59 153.495 178.952 153.496 181.312 152.709C182.493 152.316 183.28 151.922 184.066 151.528C184.865 150.958 185.731 150.456 186.643 150.018C185.346 152.258 183.964 154.443 182.503 156.568C182.148 156.738 181.758 156.887 181.312 157.036C178.952 157.823 176.59 158.217 174.229 157.823C170.688 157.036 167.146 157.43 163.604 158.217C160.063 159.004 156.915 160.577 154.161 162.544C153.374 162.937 152.587 163.725 151.406 164.118C149.045 164.905 146.684 165.299 144.323 164.905C140.782 164.119 137.241 164.511 133.699 165.298C130.158 166.085 127.01 167.659 124.256 169.626C123.469 170.019 122.681 170.806 121.501 171.199C119.534 171.986 117.566 172.38 115.599 171.986C115.599 172.773 115.992 173.56 115.992 174.347L168.427 172.948C166.534 174.723 164.573 176.425 162.547 178.05L117.566 184.97V186.937C119.534 187.723 121.501 188.117 123.469 187.724C124.649 187.724 125.436 187.33 126.616 186.937C129.764 185.756 133.306 185.363 136.848 185.757C140.296 186.14 143.744 186.898 146.829 188.391C143.41 190.204 139.874 191.826 136.233 193.24C132.898 193.325 129.582 194.087 126.616 195.199C125.829 195.593 124.649 195.985 123.469 195.985C121.501 196.379 119.14 195.985 117.173 195.592V196.772H125.311C117.233 198.877 108.758 199.999 100.021 199.999C44.7812 199.999 0 155.218 0 99.9775C0 83.2494 4.10719 67.4808 11.3672 53.624C11.4449 55.1778 11.1877 56.7314 10.9287 58.2852C9.74823 61.4326 9.35456 64.9739 9.74805 68.9082C10.1415 72.4491 11.3225 75.9901 12.8965 78.7441C13.29 79.531 13.6837 80.7112 14.0771 81.498C14.4706 83.4651 14.4706 85.4323 14.0771 87.3994H16.4375L21.877 37.54C23.6258 35.3541 25.4648 33.2433 27.3877 31.2129L29.4229 88.1865H30.21C30.9969 86.6129 31.7841 84.6456 31.7842 82.2852C31.7842 81.105 31.784 80.3178 31.3906 79.1377C30.6036 75.9903 30.6036 72.4491 31.3906 68.9082C32.1776 65.3674 33.3577 62.2197 35.3252 59.0723C36.5057 57.1051 37.293 54.7444 37.293 52.3838C37.293 51.2037 37.2929 50.4165 36.8994 49.2363C36.8994 46.4825 36.8996 42.9419 37.6865 39.4014C38.4735 35.8606 39.6537 32.7128 41.6211 29.5654C42.8016 27.5983 43.5889 25.2375 43.5889 22.877C43.5889 21.6967 43.5888 20.9097 43.1953 19.7295C43.0467 19.1352 42.9265 18.5269 42.834 17.9072C43.9831 17.105 45.1502 16.3268 46.334 15.5723C46.4912 17.1468 46.7692 18.6765 47.1309 20.123C47.5243 20.9099 47.5244 22.0903 47.5244 23.2705C47.5244 25.6311 47.1307 27.9918 45.9502 29.959C44.3762 33.1064 43.1952 36.2541 42.4082 39.7949C42.0148 43.3355 42.4084 46.8762 43.1953 50.0234C43.5888 50.8103 43.5889 51.9907 43.5889 53.1709C43.5889 55.5315 43.1951 57.8922 42.0146 59.8594C40.4407 63.0067 39.2606 66.1545 38.4736 69.6953C38.0802 73.236 38.4738 76.7766 39.2607 79.9238C39.6542 80.7106 39.6543 81.8911 39.6543 83.0713C39.6543 85.0383 39.2605 87.3989 38.4736 88.9727C38.8671 88.9727 39.6544 89.3662 40.0479 89.3662L71.1289 4.19336C71.2439 4.15873 71.3585 4.12309 71.4736 4.08887L52.2461 92.9072C52.6394 92.9073 52.6398 93.3008 53.0332 93.3008C54.2136 91.7272 55.3937 90.1535 56.1807 88.1865C56.5741 87.0063 56.5742 86.2192 56.5742 85.0391C56.5742 81.4982 57.3616 78.3504 58.9355 74.8096C60.903 72.4491 63.2641 69.6955 65.625 67.335C67.199 65.7612 68.7725 63.7932 69.166 61.4326C69.5594 60.2525 69.5596 59.4653 69.5596 58.2852C69.5596 54.7445 70.347 51.5973 71.9209 48.0566C73.4949 44.9092 75.4624 41.7621 78.2168 39.7949C79.7908 38.2212 81.3643 36.2532 81.7578 33.8926C82.5446 32.7126 82.5452 31.9261 82.9385 30.7461C82.9385 27.2052 83.7258 24.0575 85.2998 20.5166C86.8738 17.3692 88.8413 14.222 91.5957 12.2549C93.1696 10.6813 94.7431 8.71388 95.1367 6.35352C95.5302 5.17337 95.5303 4.3861 95.5303 3.20605C95.5303 2.07085 95.6622 1.06638 95.8486 0.0419922C96.2598 0.0251198 96.6716 0.0118942 97.084 0Z"/>
    </clipPath>
  </defs>

  <!-- Background -->
  <rect width="1024" height="1024" rx="224" fill="url(#vignette)"/>

  <!-- Subtle glow behind logo -->
  <rect width="1024" height="1024" rx="224" fill="url(#glow)"/>

  <!-- Layer 1: Holographic rainbow base (visible at edges) -->
  <g transform="translate(250, 200) scale(2.6)">
    <path d="M97.084 0C96.9171 1.19956 96.8646 2.39907 97.1045 3.59863C97.1045 4.77879 97.1043 5.56602 96.7109 6.74609C96.3174 9.10666 95.1365 11.0739 93.5625 13.041C91.2016 15.4015 89.2342 18.5491 88.0537 22.0898C86.4797 25.2373 86.0869 28.7785 86.0869 32.3193C86.0869 33.4996 86.0868 34.2866 85.6934 35.4668C85.2999 37.8274 84.1189 39.7946 82.5449 41.7617C80.184 44.1223 78.2166 47.2697 77.0361 50.8105C75.8557 54.3514 75.0684 57.4992 75.4619 61.04C75.4619 62.2201 75.4618 63.0073 75.0684 64.1875C74.6748 66.5477 73.4946 68.5146 71.9209 70.4814C69.5599 72.842 67.5926 75.9904 66.4121 79.5312C65.2317 83.0719 64.4444 86.2191 64.8379 89.7598C64.8379 90.94 64.8378 91.727 64.4443 92.9072C64.0508 94.8744 62.8699 96.8413 61.6895 98.415C62.0829 98.8084 62.8701 98.8088 63.2637 99.2021L114.812 20.9102L73.8877 104.71C74.2811 104.71 74.2816 105.103 74.6748 105.104C76.2487 103.923 77.8234 102.743 79.0039 100.776C79.3974 99.9895 79.7901 98.8083 80.1836 98.0215C80.9706 94.8742 82.5454 91.7266 84.9062 88.9727C87.267 86.219 90.0213 83.8588 93.1689 82.2852C95.1364 81.1049 96.7112 79.5306 98.2852 77.5635C98.6786 76.7767 99.0714 75.5963 99.4648 74.8096C100.252 71.6621 101.827 68.5147 104.188 65.7607C106.548 63.0069 109.302 60.6459 112.45 59.0723C114.418 57.892 115.992 56.3187 117.566 54.3516C117.96 53.5648 118.353 52.3845 118.746 51.5977C119.533 48.4502 121.108 45.3028 123.469 42.5488C125.83 39.7949 128.584 37.4341 131.731 35.8604C133.699 34.6801 135.274 33.1058 136.848 31.1387C136.848 29.1719 137.241 28.3852 137.635 27.2051C138.422 24.0577 139.996 20.9102 142.356 18.1562C144.717 15.4024 145.111 15.7953 143.144 18.9424C141.176 22.0897 139.601 25.2374 138.814 28.3848C138.421 29.1715 138.028 29.9587 137.635 31.1387C136.454 33.4992 134.88 35.0736 132.912 36.2539C130.158 38.221 127.403 40.5811 125.436 43.335C123.468 46.4823 121.894 49.63 121.107 52.7773C120.714 53.9576 120.714 54.7444 119.927 55.5312C118.746 57.8918 117.173 59.4662 115.205 60.6465C112.451 62.6136 109.696 64.9737 107.729 67.7275C105.761 70.4814 104.187 74.0226 103.4 77.1699C103.007 78.3501 103.007 79.137 102.22 79.9238C101.039 82.2844 99.4655 83.8588 97.498 85.0391C94.7437 87.0061 91.9889 89.3662 90.0215 92.1201C88.0541 95.2674 86.4804 98.4152 85.6934 101.562C85.2999 102.743 85.2994 103.53 84.5127 104.316C83.7257 106.284 82.1511 107.858 80.5771 109.038L81.7578 110.218L151.8 48.8438L91.9893 120.054L92.7764 120.841C94.7436 120.054 96.3177 119.267 97.8916 117.693C98.6784 116.907 99.0717 116.12 99.8584 115.333C101.432 112.579 103.793 109.824 106.941 107.464C109.696 105.103 113.238 103.924 116.386 103.137C118.747 102.743 120.714 101.563 122.288 99.5957C123.075 98.8089 123.469 98.0222 124.256 97.2354C125.83 94.4814 128.19 91.7268 131.338 89.3662C134.092 87.0057 137.634 85.8259 140.782 85.0391C143.143 84.6456 145.111 83.4651 146.685 81.498C147.472 80.7112 147.865 79.9245 148.652 79.1377C150.226 76.3837 152.587 73.6291 155.735 71.2686C158.49 68.9082 162.031 67.7282 165.179 66.9414C167.54 66.548 169.507 65.3674 171.081 63.4004C171.868 62.6136 172.262 61.8268 173.049 61.04C174.623 58.286 176.984 55.5315 180.132 53.1709C182.886 50.8105 183.28 51.5975 180.525 53.958C177.771 56.3185 175.803 59.0724 174.229 62.2197C173.836 63.0065 173.049 64.1868 172.655 64.9736C171.081 66.9408 169.114 68.1213 166.753 68.9082C163.605 70.0885 160.457 71.6619 157.702 74.0225C154.948 76.383 152.98 79.1377 151.406 82.2852C151.013 83.0719 150.226 83.859 149.833 85.0391C148.259 87.0061 146.291 88.1858 143.931 88.9727C140.783 90.1529 137.634 91.7273 134.88 94.0879C132.125 96.4484 130.158 99.2022 128.584 102.35C128.19 103.136 127.403 103.923 127.01 105.104C125.436 107.071 123.468 108.251 121.107 109.038C117.96 110.218 114.811 111.792 112.057 114.152C109.302 116.513 107.335 119.267 105.761 122.414C105.367 123.201 104.581 123.989 104.188 125.169C102.614 126.742 101.039 127.922 99.0723 128.709L100.252 129.89L180.919 85.0391L105.761 139.332C105.761 139.725 106.154 139.726 106.154 140.119C108.122 140.119 110.089 139.332 112.057 138.151C112.844 137.758 113.631 137.365 114.418 136.578C116.779 134.218 119.534 132.25 123.075 130.677C126.617 129.103 129.764 128.709 133.306 128.709C135.667 128.709 138.028 127.922 139.995 126.742C140.782 126.349 141.569 125.562 142.356 124.775C144.717 122.415 147.471 120.448 151.013 118.874C154.554 117.3 157.703 116.906 161.244 116.906C163.605 116.906 165.966 116.12 167.934 114.939C168.72 114.546 169.507 113.759 170.294 112.973C172.655 110.612 175.41 108.644 178.951 107.07C182.492 105.497 185.64 105.104 189.182 105.104C191.542 105.104 193.904 104.317 195.871 103.137C196.658 102.743 197.445 101.956 198.232 101.169C198.779 100.622 199.388 100.076 200.04 99.5459C200.041 99.6897 200.043 99.8336 200.043 99.9775C200.043 100.834 200.031 101.688 200.01 102.54C199.942 102.608 199.874 102.675 199.807 102.743C199.02 103.53 198.232 104.317 197.445 104.71C195.478 106.284 193.117 107.07 190.756 107.07C187.214 107.464 184.067 108.252 180.525 109.825C177.377 111.399 174.623 113.76 172.262 116.12C171.475 116.907 170.687 117.694 169.9 118.087C167.933 119.66 165.573 120.447 163.212 120.447C159.67 120.841 156.522 121.627 152.98 123.201C149.833 124.775 147.078 127.136 144.717 129.496C143.93 130.283 143.143 131.069 142.356 131.463C140.389 133.037 138.028 133.824 135.667 133.824C132.126 134.218 128.584 135.004 125.436 136.578C122.288 138.152 119.534 140.513 117.173 142.873C116.386 143.66 115.599 144.446 114.812 144.84C113.238 146.02 111.27 146.807 109.303 147.2C109.696 147.594 109.696 148.381 110.09 148.774L196.227 127.43C196.155 127.681 196.082 127.931 196.009 128.182L114.024 160.971C114.024 161.364 114.025 161.364 114.418 161.758C116.385 162.151 118.353 162.151 120.714 161.364C121.894 161.758 122.682 161.364 123.469 160.971C126.223 159.004 129.764 157.823 133.306 157.43C136.847 157.036 140.389 157.036 143.931 157.823C146.291 158.217 148.652 158.216 151.013 157.43C152.193 157.036 152.981 156.642 153.768 156.249C156.522 154.282 160.063 153.102 163.604 152.709C167.146 152.316 170.688 152.315 174.229 153.102C176.59 153.495 178.952 153.496 181.312 152.709C182.493 152.316 183.28 151.922 184.066 151.528C184.865 150.958 185.731 150.456 186.643 150.018C185.346 152.258 183.964 154.443 182.503 156.568C182.148 156.738 181.758 156.887 181.312 157.036C178.952 157.823 176.59 158.217 174.229 157.823C170.688 157.036 167.146 157.43 163.604 158.217C160.063 159.004 156.915 160.577 154.161 162.544C153.374 162.937 152.587 163.725 151.406 164.118C149.045 164.905 146.684 165.299 144.323 164.905C140.782 164.119 137.241 164.511 133.699 165.298C130.158 166.085 127.01 167.659 124.256 169.626C123.469 170.019 122.681 170.806 121.501 171.199C119.534 171.986 117.566 172.38 115.599 171.986C115.599 172.773 115.992 173.56 115.992 174.347L168.427 172.948C166.534 174.723 164.573 176.425 162.547 178.05L117.566 184.97V186.937C119.534 187.723 121.501 188.117 123.469 187.724C124.649 187.724 125.436 187.33 126.616 186.937C129.764 185.756 133.306 185.363 136.848 185.757C140.296 186.14 143.744 186.898 146.829 188.391C143.41 190.204 139.874 191.826 136.233 193.24C132.898 193.325 129.582 194.087 126.616 195.199C125.829 195.593 124.649 195.985 123.469 195.985C121.501 196.379 119.14 195.985 117.173 195.592V196.772H125.311C117.233 198.877 108.758 199.999 100.021 199.999C44.7812 199.999 0 155.218 0 99.9775C0 83.2494 4.10719 67.4808 11.3672 53.624C11.4449 55.1778 11.1877 56.7314 10.9287 58.2852C9.74823 61.4326 9.35456 64.9739 9.74805 68.9082C10.1415 72.4491 11.3225 75.9901 12.8965 78.7441C13.29 79.531 13.6837 80.7112 14.0771 81.498C14.4706 83.4651 14.4706 85.4323 14.0771 87.3994H16.4375L21.877 37.54C23.6258 35.3541 25.4648 33.2433 27.3877 31.2129L29.4229 88.1865H30.21C30.9969 86.6129 31.7841 84.6456 31.7842 82.2852C31.7842 81.105 31.784 80.3178 31.3906 79.1377C30.6036 75.9903 30.6036 72.4491 31.3906 68.9082C32.1776 65.3674 33.3577 62.2197 35.3252 59.0723C36.5057 57.1051 37.293 54.7444 37.293 52.3838C37.293 51.2037 37.2929 50.4165 36.8994 49.2363C36.8994 46.4825 36.8996 42.9419 37.6865 39.4014C38.4735 35.8606 39.6537 32.7128 41.6211 29.5654C42.8016 27.5983 43.5889 25.2375 43.5889 22.877C43.5889 21.6967 43.5888 20.9097 43.1953 19.7295C43.0467 19.1352 42.9265 18.5269 42.834 17.9072C43.9831 17.105 45.1502 16.3268 46.334 15.5723C46.4912 17.1468 46.7692 18.6765 47.1309 20.123C47.5243 20.9099 47.5244 22.0903 47.5244 23.2705C47.5244 25.6311 47.1307 27.9918 45.9502 29.959C44.3762 33.1064 43.1952 36.2541 42.4082 39.7949C42.0148 43.3355 42.4084 46.8762 43.1953 50.0234C43.5888 50.8103 43.5889 51.9907 43.5889 53.1709C43.5889 55.5315 43.1951 57.8922 42.0146 59.8594C40.4407 63.0067 39.2606 66.1545 38.4736 69.6953C38.0802 73.236 38.4738 76.7766 39.2607 79.9238C39.6542 80.7106 39.6543 81.8911 39.6543 83.0713C39.6543 85.0383 39.2605 87.3989 38.4736 88.9727C38.8671 88.9727 39.6544 89.3662 40.0479 89.3662L71.1289 4.19336C71.2439 4.15873 71.3585 4.12309 71.4736 4.08887L52.2461 92.9072C52.6394 92.9073 52.6398 93.3008 53.0332 93.3008C54.2136 91.7272 55.3937 90.1535 56.1807 88.1865C56.5741 87.0063 56.5742 86.2192 56.5742 85.0391C56.5742 81.4982 57.3616 78.3504 58.9355 74.8096C60.903 72.4491 63.2641 69.6955 65.625 67.335C67.199 65.7612 68.7725 63.7932 69.166 61.4326C69.5594 60.2525 69.5596 59.4653 69.5596 58.2852C69.5596 54.7445 70.347 51.5973 71.9209 48.0566C73.4949 44.9092 75.4624 41.7621 78.2168 39.7949C79.7908 38.2212 81.3643 36.2532 81.7578 33.8926C82.5446 32.7126 82.5452 31.9261 82.9385 30.7461C82.9385 27.2052 83.7258 24.0575 85.2998 20.5166C86.8738 17.3692 88.8413 14.222 91.5957 12.2549C93.1696 10.6813 94.7431 8.71388 95.1367 6.35352C95.5302 5.17337 95.5303 4.3861 95.5303 3.20605C95.5303 2.07085 95.6622 1.06638 95.8486 0.0419922C96.2598 0.0251198 96.6716 0.0118942 97.084 0Z" fill="url(#holo)"/>
  </g>

  <!-- Layer 2: White core overlay — clipped to logo shape, radial fade creates glass effect -->
  <g clip-path="url(#logo-clip)">
    <rect width="1024" height="1024" fill="url(#white-core)"/>
  </g>

  <!-- Subtle top lighting -->
  <rect width="1024" height="1024" rx="224" fill="url(#shine)"/>
</svg>
